<mxfile host="app.diagrams.net" agent="Mozilla/5.0 (Windows NT 10.0; Win64; x64) AppleWebKit/537.36 (KHTML, like Gecko) Chrome/129.0.0.0 Safari/537.36" version="24.7.16">
  <diagram name="Страница — 1" id="SKTmbDtd01wdQMFLLa15">
    <mxGraphModel dx="1050" dy="565" grid="1" gridSize="10" guides="1" tooltips="1" connect="1" arrows="1" fold="1" page="1" pageScale="1" pageWidth="827" pageHeight="1169" math="0" shadow="0">
      <root>
        <mxCell id="0" />
        <mxCell id="1" parent="0" />
        <mxCell id="w19HnpxaU_MaIHIcH51R-4" value="" style="edgeStyle=orthogonalEdgeStyle;rounded=0;orthogonalLoop=1;jettySize=auto;html=1;" edge="1" parent="1" source="w19HnpxaU_MaIHIcH51R-2">
          <mxGeometry relative="1" as="geometry">
            <mxPoint x="200" y="110" as="targetPoint" />
          </mxGeometry>
        </mxCell>
        <mxCell id="w19HnpxaU_MaIHIcH51R-2" value="END" style="ellipse;whiteSpace=wrap;html=1;" vertex="1" parent="1">
          <mxGeometry x="140" y="10" width="120" height="80" as="geometry" />
        </mxCell>
        <mxCell id="w19HnpxaU_MaIHIcH51R-11" value="" style="edgeStyle=orthogonalEdgeStyle;rounded=0;orthogonalLoop=1;jettySize=auto;html=1;" edge="1" parent="1" source="w19HnpxaU_MaIHIcH51R-8" target="w19HnpxaU_MaIHIcH51R-9">
          <mxGeometry relative="1" as="geometry" />
        </mxCell>
        <mxCell id="w19HnpxaU_MaIHIcH51R-8" value="INIT:&lt;br&gt;available_ server_number = 1;&lt;div&gt;server_capacity = C;&lt;br&gt;&lt;div&gt;data_stored = 0;&lt;/div&gt;&lt;/div&gt;" style="rounded=0;whiteSpace=wrap;html=1;" vertex="1" parent="1">
          <mxGeometry x="140" y="110" width="180" height="60" as="geometry" />
        </mxCell>
        <mxCell id="w19HnpxaU_MaIHIcH51R-27" value="" style="edgeStyle=orthogonalEdgeStyle;rounded=0;orthogonalLoop=1;jettySize=auto;html=1;" edge="1" parent="1" source="w19HnpxaU_MaIHIcH51R-9" target="w19HnpxaU_MaIHIcH51R-12">
          <mxGeometry relative="1" as="geometry" />
        </mxCell>
        <mxCell id="w19HnpxaU_MaIHIcH51R-9" value="new_data" style="shape=parallelogram;perimeter=parallelogramPerimeter;whiteSpace=wrap;html=1;fixedSize=1;" vertex="1" parent="1">
          <mxGeometry x="140" y="200" width="120" height="60" as="geometry" />
        </mxCell>
        <mxCell id="w19HnpxaU_MaIHIcH51R-13" style="edgeStyle=orthogonalEdgeStyle;rounded=0;orthogonalLoop=1;jettySize=auto;html=1;exitX=1;exitY=0.5;exitDx=0;exitDy=0;entryX=0;entryY=0.5;entryDx=0;entryDy=0;" edge="1" parent="1" source="w19HnpxaU_MaIHIcH51R-12" target="w19HnpxaU_MaIHIcH51R-18">
          <mxGeometry relative="1" as="geometry">
            <mxPoint x="390" y="330" as="targetPoint" />
          </mxGeometry>
        </mxCell>
        <mxCell id="w19HnpxaU_MaIHIcH51R-24" value="" style="edgeStyle=orthogonalEdgeStyle;rounded=0;orthogonalLoop=1;jettySize=auto;html=1;" edge="1" parent="1" source="w19HnpxaU_MaIHIcH51R-12" target="w19HnpxaU_MaIHIcH51R-23">
          <mxGeometry relative="1" as="geometry" />
        </mxCell>
        <mxCell id="w19HnpxaU_MaIHIcH51R-12" value="IF&lt;div&gt;new_data &amp;gt; available_server_number * C&lt;/div&gt;" style="rhombus;whiteSpace=wrap;html=1;" vertex="1" parent="1">
          <mxGeometry x="65" y="308" width="270" height="90" as="geometry" />
        </mxCell>
        <mxCell id="w19HnpxaU_MaIHIcH51R-14" value="TRUE" style="text;html=1;align=center;verticalAlign=middle;resizable=0;points=[];autosize=1;strokeColor=none;fillColor=none;" vertex="1" parent="1">
          <mxGeometry x="335" y="323" width="60" height="30" as="geometry" />
        </mxCell>
        <mxCell id="w19HnpxaU_MaIHIcH51R-29" value="" style="edgeStyle=orthogonalEdgeStyle;rounded=0;orthogonalLoop=1;jettySize=auto;html=1;" edge="1" parent="1" source="w19HnpxaU_MaIHIcH51R-18" target="w19HnpxaU_MaIHIcH51R-28">
          <mxGeometry relative="1" as="geometry">
            <Array as="points">
              <mxPoint x="500" y="280" />
            </Array>
          </mxGeometry>
        </mxCell>
        <mxCell id="w19HnpxaU_MaIHIcH51R-18" value="available_server_number++" style="rounded=0;whiteSpace=wrap;html=1;" vertex="1" parent="1">
          <mxGeometry x="414" y="323" width="176" height="60" as="geometry" />
        </mxCell>
        <mxCell id="w19HnpxaU_MaIHIcH51R-31" value="" style="edgeStyle=orthogonalEdgeStyle;rounded=0;orthogonalLoop=1;jettySize=auto;html=1;" edge="1" parent="1" source="w19HnpxaU_MaIHIcH51R-22" target="w19HnpxaU_MaIHIcH51R-30">
          <mxGeometry relative="1" as="geometry" />
        </mxCell>
        <mxCell id="w19HnpxaU_MaIHIcH51R-22" value="WRITE new_data;&lt;div&gt;&lt;br&gt;&lt;/div&gt;&lt;div&gt;available_server_number =0;&lt;/div&gt;" style="rounded=0;whiteSpace=wrap;html=1;" vertex="1" parent="1">
          <mxGeometry x="40" y="460" width="170" height="100" as="geometry" />
        </mxCell>
        <mxCell id="w19HnpxaU_MaIHIcH51R-23" value="" style="shape=waypoint;sketch=0;size=6;pointerEvents=1;points=[];fillColor=default;resizable=0;rotatable=0;perimeter=centerPerimeter;snapToPoint=1;" vertex="1" parent="1">
          <mxGeometry x="60" y="450" width="20" height="20" as="geometry" />
        </mxCell>
        <mxCell id="w19HnpxaU_MaIHIcH51R-25" value="FALSE" style="text;html=1;align=center;verticalAlign=middle;resizable=0;points=[];autosize=1;strokeColor=none;fillColor=none;" vertex="1" parent="1">
          <mxGeometry x="70" y="398" width="60" height="30" as="geometry" />
        </mxCell>
        <mxCell id="w19HnpxaU_MaIHIcH51R-28" value="" style="shape=waypoint;sketch=0;size=6;pointerEvents=1;points=[];fillColor=default;resizable=0;rotatable=0;perimeter=centerPerimeter;snapToPoint=1;rounded=0;" vertex="1" parent="1">
          <mxGeometry x="190" y="270" width="20" height="20" as="geometry" />
        </mxCell>
        <mxCell id="w19HnpxaU_MaIHIcH51R-30" value="END" style="ellipse;whiteSpace=wrap;html=1;" vertex="1" parent="1">
          <mxGeometry x="270" y="470" width="120" height="80" as="geometry" />
        </mxCell>
      </root>
    </mxGraphModel>
  </diagram>
</mxfile>
